<svg xmlns="http://www.w3.org/2000/svg" xmlns:xlink="http://www.w3.org/1999/xlink" width="1920" zoomAndPan="magnify" viewBox="0 0 1440 809.999993" height="1080" preserveAspectRatio="xMidYMid meet" version="1.0"><defs><clipPath id="654ecbcce7"><path d="M 594.121094 279 L 846 279 L 846 531 L 594.121094 531 Z M 594.121094 279 " clip-rule="nonzero"/></clipPath></defs><g clip-path="url(#654ecbcce7)"><path fill="#89c400" d="M 700.300781 325.058594 C 700.300781 325.058594 699.949219 325.058594 699.597656 324.707031 C 697.078125 322.894531 694.15625 321.835938 691.285156 320.726562 C 685.140625 318.207031 678.640625 317.453125 672.847656 317.855469 C 672.496094 323.648438 673.203125 329.792969 675.71875 335.9375 C 678.238281 342.789062 682.21875 349.335938 688.011719 355.078125 C 690.175781 357.246094 692.34375 359.058594 694.507812 360.871094 C 697.027344 362.6875 699.546875 364.144531 701.761719 365.203125 C 703.222656 365.910156 703.929688 367.722656 703.222656 369.183594 C 702.519531 370.644531 700.703125 370.996094 699.242188 370.292969 C 696.726562 368.832031 693.804688 367.421875 691.285156 365.253906 C 688.765625 363.441406 686.246094 361.628906 684.03125 359.109375 C 677.535156 352.964844 673.203125 345.710938 670.28125 338.15625 C 667.410156 330.195312 666.300781 322.238281 667.410156 315.035156 C 667.761719 313.574219 668.871094 312.867188 669.925781 312.515625 C 677.179688 311.40625 685.492188 312.515625 693.046875 315.386719 C 694.859375 316.09375 697.027344 316.847656 698.839844 317.90625 C 699.546875 310.652344 701.007812 304.15625 703.878906 298.007812 C 707.152344 290.402344 712.1875 284.257812 718.335938 279.574219 C 719.441406 278.867188 720.851562 278.867188 721.609375 279.925781 C 727.753906 284.257812 732.789062 290.402344 736.066406 298.007812 C 738.9375 304.15625 740.398438 310.652344 741.101562 317.90625 C 742.914062 316.796875 744.726562 316.09375 746.894531 315.386719 C 754.5 312.515625 762.8125 311.40625 770.015625 312.515625 C 771.476562 312.867188 772.179688 313.976562 772.53125 315.035156 C 773.640625 322.289062 772.53125 330.195312 769.660156 338.15625 C 766.789062 345.761719 762.054688 352.964844 755.910156 359.109375 C 753.746094 361.628906 751.226562 363.441406 748.65625 365.253906 C 746.140625 367.421875 743.21875 368.882812 740.699219 370.292969 C 739.238281 370.996094 737.425781 370.644531 736.71875 369.183594 C 736.015625 367.722656 736.71875 365.910156 738.179688 365.203125 C 740.347656 364.097656 742.863281 362.6875 745.433594 360.871094 C 747.597656 359.058594 749.765625 357.246094 751.929688 355.078125 C 757.722656 349.285156 761.703125 342.789062 764.222656 335.9375 C 766.742188 329.792969 767.496094 323.648438 767.09375 317.855469 C 760.949219 317.503906 754.800781 318.207031 748.65625 320.726562 C 745.785156 321.835938 742.863281 322.894531 740.347656 324.707031 C 739.992188 325.058594 739.640625 325.058594 739.238281 325.058594 C 735.964844 327.222656 732.738281 330.09375 729.820312 333.015625 C 727.300781 335.183594 725.488281 337.347656 723.671875 339.515625 C 731.28125 349.992188 733.796875 358.304688 733.09375 364.097656 C 731.984375 371.703125 725.839844 375.679688 719.695312 375.679688 C 713.902344 375.679688 707.757812 371.703125 706.699219 364.097656 C 705.992188 358.304688 708.160156 349.992188 716.117188 339.515625 C 714.304688 337.347656 712.492188 335.183594 709.972656 333.015625 C 707.152344 330.144531 703.929688 327.222656 700.300781 325.058594 Z M 719.84375 381.472656 C 726.34375 381.472656 732.136719 384.34375 736.46875 388.324219 C 740.800781 392.65625 743.316406 398.449219 743.316406 404.945312 C 743.316406 411.445312 740.800781 417.238281 736.46875 421.570312 C 732.136719 425.546875 726.34375 428.417969 719.84375 428.417969 C 713.699219 428.417969 707.554688 425.546875 703.574219 421.570312 C 699.242188 417.238281 696.726562 411.445312 696.726562 404.945312 C 696.726562 398.449219 699.242188 392.65625 703.574219 388.324219 C 707.554688 384.34375 713.699219 381.472656 719.84375 381.472656 Z M 732.488281 392.304688 C 729.214844 389.433594 724.882812 387.265625 719.84375 387.265625 C 715.160156 387.265625 710.828125 389.433594 707.554688 392.304688 C 704.28125 395.578125 702.519531 400.261719 702.519531 404.945312 C 702.519531 409.632812 704.332031 414.367188 707.554688 417.589844 C 710.828125 420.460938 715.160156 422.628906 719.84375 422.628906 C 724.882812 422.628906 729.265625 420.460938 732.488281 417.589844 C 735.761719 414.316406 737.523438 409.632812 737.523438 404.945312 C 737.523438 400.261719 735.710938 395.527344 732.488281 392.304688 Z M 685.492188 384.34375 C 686.199219 385.804688 685.492188 387.214844 684.03125 387.972656 C 682.570312 388.675781 681.160156 388.324219 680.40625 386.863281 C 678.945312 384.34375 677.535156 381.828125 675.71875 379.609375 C 674.257812 377.445312 672.09375 375.277344 670.28125 373.113281 C 664.488281 367.320312 657.636719 362.988281 651.140625 360.46875 C 644.992188 358.304688 638.847656 357.195312 632.703125 357.949219 C 632.351562 363.742188 633.410156 369.890625 635.574219 376.035156 C 636.683594 378.90625 638.09375 381.828125 639.554688 384.699219 C 639.90625 384.699219 640.257812 385.050781 640.257812 385.402344 C 642.425781 388.675781 644.945312 391.902344 647.863281 395.175781 C 650.382812 397.339844 652.550781 399.507812 654.714844 401.320312 C 664.839844 393.363281 673.152344 391.195312 678.945312 391.902344 C 686.902344 392.605469 690.882812 398.75 690.882812 404.898438 C 690.882812 411.042969 686.902344 417.1875 678.945312 417.890625 C 673.152344 418.597656 664.839844 416.429688 654.714844 408.472656 C 652.550781 410.285156 650.382812 412.453125 647.863281 414.617188 C 644.992188 417.890625 642.425781 421.117188 640.257812 424.390625 C 640.257812 424.742188 639.90625 425.09375 639.554688 425.09375 C 638.09375 427.964844 636.683594 430.886719 635.574219 433.757812 C 633.410156 439.90625 632.300781 446.050781 632.703125 451.84375 C 638.847656 452.546875 644.992188 451.488281 651.140625 449.324219 C 657.636719 446.804688 664.539062 442.472656 670.28125 436.679688 C 672.09375 434.515625 674.257812 432.347656 675.71875 430.183594 C 677.535156 428.015625 678.996094 425.5 680.40625 422.929688 C 681.109375 421.46875 682.570312 421.117188 684.03125 421.820312 C 685.492188 422.527344 686.199219 423.988281 685.492188 425.449219 C 684.03125 428.320312 682.21875 430.886719 680.457031 433.40625 C 678.640625 435.925781 676.476562 438.445312 674.308594 440.660156 C 667.8125 447.15625 660.558594 451.84375 653.003906 454.410156 C 645.398438 457.683594 637.4375 458.390625 629.882812 457.28125 C 628.773438 457.28125 627.714844 456.175781 627.714844 454.765625 C 626.257812 447.511719 627.363281 439.601562 630.234375 431.644531 C 630.941406 429.832031 632.046875 428.015625 632.753906 425.851562 C 625.5 425.5 619.003906 423.683594 613.261719 421.167969 C 605.65625 417.539062 599.15625 412.503906 594.824219 406.710938 C 594.121094 405.601562 594.121094 404.191406 594.824219 403.082031 C 599.15625 397.289062 605.65625 392.253906 613.261719 388.625 C 619.054688 386.109375 625.550781 384.292969 632.753906 383.941406 C 632.046875 381.777344 630.941406 379.964844 630.234375 378.148438 C 627.363281 370.191406 626.257812 362.230469 627.714844 355.03125 C 627.714844 353.570312 628.824219 352.511719 629.882812 352.511719 C 637.488281 351.402344 645.449219 352.15625 653.003906 355.382812 C 660.609375 357.902344 667.8125 362.636719 674.308594 369.132812 C 676.476562 371.300781 678.640625 373.816406 680.457031 376.386719 C 682.21875 378.90625 684.03125 381.472656 685.492188 384.34375 Z M 635.976562 420.511719 C 638.144531 417.238281 641.015625 413.660156 643.9375 410.738281 C 646.101562 408.574219 648.269531 406.761719 650.082031 404.945312 C 648.269531 403.132812 646.101562 401.320312 643.9375 399.152344 C 641.066406 396.28125 638.144531 392.65625 635.976562 389.382812 C 628.371094 389.734375 621.519531 391.195312 615.375 394.066406 C 609.582031 396.585938 604.546875 400.566406 600.566406 404.898438 C 604.546875 409.226562 609.582031 413.207031 615.375 415.726562 C 621.519531 418.699219 628.371094 420.109375 635.976562 420.511719 Z M 659.097656 404.945312 C 667.410156 411.09375 673.90625 412.90625 678.238281 412.554688 C 682.921875 411.847656 685.089844 408.222656 685.089844 404.945312 C 685.089844 401.320312 682.921875 398.097656 678.238281 397.339844 C 673.90625 396.988281 667.410156 398.800781 659.097656 404.945312 Z M 759.585938 386.863281 C 758.882812 388.324219 757.421875 388.675781 755.960938 387.972656 C 754.5 387.265625 753.796875 385.804688 754.5 384.34375 C 755.960938 381.472656 757.773438 378.90625 759.539062 376.386719 C 761.351562 373.867188 763.515625 371.347656 765.683594 369.132812 C 772.179688 362.636719 779.433594 357.949219 786.988281 355.382812 C 794.59375 352.109375 802.554688 351.402344 810.109375 352.511719 C 811.21875 352.511719 812.277344 353.617188 812.277344 355.03125 C 813.382812 362.28125 812.628906 370.191406 809.757812 378.148438 C 809.050781 379.964844 807.945312 381.777344 807.238281 383.941406 C 814.089844 384.292969 820.988281 386.109375 826.730469 388.625 C 834.339844 392.253906 840.835938 397.289062 845.167969 403.082031 C 845.875 404.191406 845.875 405.601562 845.167969 406.710938 C 840.835938 412.503906 834.339844 417.539062 826.730469 421.167969 C 820.941406 423.683594 814.089844 425.5 807.238281 425.851562 C 807.945312 428.015625 809.050781 429.832031 809.757812 431.644531 C 812.628906 439.601562 813.382812 447.5625 812.277344 454.765625 C 812.277344 456.222656 811.167969 457.28125 810.109375 457.28125 C 802.503906 458.390625 794.546875 457.636719 786.988281 454.410156 C 779.382812 451.894531 772.179688 447.15625 765.683594 440.660156 C 763.515625 438.492188 761.351562 435.976562 759.539062 433.40625 C 757.722656 430.886719 755.910156 428.371094 754.5 425.449219 C 753.796875 423.988281 754.5 422.578125 755.960938 421.820312 C 757.421875 421.117188 758.832031 421.46875 759.585938 422.929688 C 761.046875 425.449219 762.460938 427.964844 764.273438 430.183594 C 765.734375 432.347656 767.546875 434.515625 769.710938 436.679688 C 775.503906 442.472656 782.003906 446.804688 788.851562 449.324219 C 795 451.488281 801.144531 452.597656 806.9375 451.84375 C 807.640625 446.050781 806.582031 439.90625 804.417969 433.757812 C 803.308594 430.886719 801.898438 427.964844 800.085938 425.09375 C 800.085938 425.09375 799.734375 424.742188 799.734375 424.390625 C 797.566406 421.117188 795.050781 417.890625 791.773438 414.617188 C 789.609375 412.453125 787.441406 410.285156 785.277344 408.472656 C 775.152344 416.429688 766.839844 418.597656 761.046875 417.890625 C 753.089844 417.1875 749.109375 411.042969 749.109375 404.898438 C 749.109375 398.75 753.089844 392.605469 761.046875 391.902344 C 766.839844 391.195312 774.800781 393.363281 785.277344 401.320312 C 787.441406 399.507812 789.609375 397.339844 791.773438 395.175781 C 795.050781 391.902344 797.566406 388.675781 799.734375 385.402344 C 799.734375 385.050781 800.085938 384.699219 800.085938 384.699219 C 801.898438 381.828125 803.359375 378.90625 804.417969 376.035156 C 806.582031 369.890625 807.691406 363.742188 806.9375 357.949219 C 801.144531 357.246094 795 358.304688 788.851562 360.46875 C 782.003906 362.988281 775.453125 367.320312 769.710938 373.113281 C 767.546875 375.277344 765.734375 377.445312 764.273438 379.609375 C 762.460938 381.828125 761.046875 384.34375 759.585938 386.863281 Z M 804.066406 389.382812 C 801.898438 392.65625 799.027344 396.234375 796.105469 399.152344 C 793.941406 401.320312 791.773438 403.132812 789.960938 404.945312 C 791.773438 406.761719 793.941406 408.574219 796.105469 410.738281 C 798.976562 413.609375 801.898438 417.238281 804.066406 420.511719 C 811.671875 420.160156 818.523438 418.699219 824.667969 415.828125 C 830.460938 413.308594 835.496094 409.328125 839.476562 404.996094 C 835.496094 400.664062 830.460938 396.6875 824.667969 394.167969 C 818.523438 391.195312 811.621094 389.785156 804.066406 389.382812 Z M 761.753906 412.554688 C 766.085938 412.90625 772.230469 411.09375 780.542969 404.945312 C 772.230469 398.800781 766.085938 396.988281 761.753906 397.339844 C 757.070312 398.046875 754.902344 401.320312 754.902344 404.945312 C 754.902344 408.222656 757.070312 411.796875 761.753906 412.554688 Z M 699.242188 439.652344 C 700.703125 438.949219 702.519531 439.300781 703.222656 440.761719 C 703.929688 442.222656 703.222656 444.035156 701.761719 444.738281 C 699.597656 445.847656 697.078125 447.257812 694.507812 449.070312 C 692.34375 450.886719 690.175781 452.699219 688.011719 454.863281 C 682.21875 460.65625 678.238281 467.15625 675.71875 474.003906 C 673.203125 480.152344 672.445312 486.296875 672.847656 492.089844 C 678.640625 492.441406 685.140625 491.734375 691.285156 489.21875 C 694.15625 488.109375 697.078125 487.050781 699.597656 485.238281 C 699.949219 484.886719 700.300781 484.886719 700.300781 484.886719 C 703.929688 482.71875 707.152344 479.847656 710.074219 476.925781 C 712.589844 474.761719 714.40625 472.59375 716.21875 470.429688 C 708.261719 459.953125 706.09375 451.640625 706.800781 445.847656 C 707.90625 438.242188 714.050781 434.261719 719.792969 434.261719 C 725.941406 434.261719 732.085938 438.242188 733.195312 445.847656 C 733.898438 451.992188 731.378906 459.953125 723.773438 470.429688 C 725.585938 472.59375 727.402344 474.761719 729.917969 476.925781 C 732.789062 479.796875 736.066406 482.71875 739.339844 484.886719 C 739.691406 484.886719 740.042969 484.886719 740.445312 485.238281 C 742.964844 487.050781 745.886719 488.109375 748.757812 489.21875 C 754.902344 491.734375 761.046875 492.492188 767.195312 492.089844 C 767.546875 486.296875 766.839844 480.152344 764.324219 474.003906 C 761.804688 467.15625 757.824219 460.605469 752.03125 454.863281 C 749.867188 452.699219 747.699219 450.886719 745.535156 449.070312 C 743.015625 447.257812 740.496094 445.796875 738.28125 444.738281 C 736.820312 444.035156 736.113281 442.222656 736.820312 440.761719 C 737.527344 439.300781 739.339844 438.949219 740.800781 439.652344 C 743.316406 441.113281 746.238281 442.523438 748.757812 444.691406 C 751.277344 446.503906 753.796875 448.316406 756.011719 450.835938 C 762.15625 456.980469 766.839844 464.234375 769.761719 471.789062 C 772.632812 479.746094 773.742188 487.707031 772.632812 494.910156 C 772.28125 496.371094 771.527344 497.074219 770.117188 497.429688 C 762.863281 498.535156 754.550781 497.429688 746.996094 494.558594 C 744.828125 493.851562 743.015625 493.097656 741.203125 492.039062 C 740.496094 499.292969 739.035156 506.140625 736.164062 511.933594 C 732.890625 519.539062 727.855469 525.6875 721.707031 530.019531 C 721.003906 531.125 719.542969 531.125 718.433594 530.371094 C 712.289062 525.6875 707.253906 519.539062 703.976562 511.933594 C 701.105469 506.140625 699.644531 499.292969 698.941406 492.039062 C 697.128906 493.144531 694.960938 493.851562 693.148438 494.558594 C 685.542969 497.429688 677.230469 498.535156 670.027344 497.429688 C 668.921875 497.074219 667.863281 496.320312 667.511719 494.910156 C 666.402344 487.65625 667.511719 479.746094 670.382812 471.789062 C 673.253906 464.183594 677.632812 456.980469 684.132812 450.835938 C 686.296875 448.316406 688.816406 446.503906 691.386719 444.691406 C 693.804688 442.523438 696.675781 441.113281 699.242188 439.652344 Z M 735.359375 488.816406 C 732.085938 486.648438 728.863281 484.128906 725.585938 480.855469 C 723.421875 478.691406 721.609375 476.875 719.792969 474.710938 C 718.335938 476.875 716.167969 478.691406 714.003906 480.855469 C 711.132812 484.128906 707.855469 486.648438 704.230469 488.816406 C 704.582031 496.421875 706.394531 503.625 708.914062 509.417969 C 711.785156 515.5625 715.414062 520.597656 719.746094 524.226562 C 724.429688 520.597656 728.054688 515.5625 730.925781 509.417969 C 733.546875 503.625 735.359375 496.371094 735.359375 488.816406 Z M 719.84375 465.695312 C 725.992188 457.382812 728.15625 451.238281 727.453125 446.554688 C 726.746094 442.222656 723.472656 439.703125 719.84375 439.703125 C 716.570312 439.703125 712.996094 442.222656 712.589844 446.554688 C 711.886719 450.835938 713.699219 457.332031 719.84375 465.695312 Z M 735.359375 321.078125 C 735.359375 313.472656 733.546875 306.269531 731.027344 300.476562 C 728.15625 294.332031 724.53125 289.296875 719.84375 285.667969 C 715.511719 289.296875 711.886719 294.332031 709.015625 300.476562 C 706.496094 306.269531 704.683594 313.472656 704.332031 321.078125 C 707.957031 323.246094 711.179688 325.765625 714.101562 329.039062 C 716.269531 331.203125 718.433594 333.015625 719.894531 335.183594 C 721.707031 333.015625 723.523438 331.203125 725.6875 329.039062 C 728.863281 325.8125 732.136719 323.246094 735.359375 321.078125 Z M 727.402344 363.390625 C 728.105469 359.058594 725.941406 352.5625 719.792969 344.25 C 713.648438 352.5625 711.835938 359.058594 712.542969 363.390625 C 712.894531 367.722656 716.519531 370.242188 719.792969 370.242188 C 723.421875 370.242188 726.695312 367.722656 727.402344 363.390625 Z M 727.402344 363.390625 " fill-opacity="1" fill-rule="nonzero"/></g></svg>