<svg xmlns="http://www.w3.org/2000/svg" xmlns:xlink="http://www.w3.org/1999/xlink" width="500" zoomAndPan="magnify" viewBox="0 0 375 374.999991" height="500" preserveAspectRatio="xMidYMid meet" version="1.0"><defs><g/><clipPath id="b795ebde8f"><rect x="0" width="212" y="0" height="87"/></clipPath><clipPath id="70fe0e3b53"><path d="M 33.699219 140.519531 L 109.449219 140.519531 L 109.449219 216.269531 L 33.699219 216.269531 Z M 33.699219 140.519531 " clip-rule="nonzero"/></clipPath></defs><g transform="matrix(1, 0, 0, 1, 109, 135)"><g clip-path="url(#b795ebde8f)"><g fill="#ffffff" fill-opacity="1"><g transform="translate(0.377119, 68.487489)"><g><path d="M 32.734375 -14.703125 L 16.328125 -14.703125 L 11.453125 0 L 1.0625 0 L 18.65625 -48.78125 L 30.890625 -48.78125 L 48.140625 0 L 37.53125 0 Z M 24.59375 -40.4375 L 18.796875 -22.40625 L 30.25 -22.40625 Z M 24.59375 -40.4375 "/></g></g></g><g fill="#ffffff" fill-opacity="1"><g transform="translate(44.05797, 68.487489)"><g><path d="M 39.15625 -37.609375 L 39.15625 0 L 29.40625 0 L 29.40625 -6.359375 L 26.515625 -1.5625 C 23.960938 0.132812 20.941406 0.984375 17.453125 0.984375 C 13.734375 0.984375 10.707031 0.078125 8.375 -1.734375 C 6.039062 -3.546875 4.640625 -5.816406 4.171875 -8.546875 C 3.929688 -10.148438 3.8125 -12.4375 3.8125 -15.40625 L 3.8125 -37.609375 L 13.578125 -37.609375 L 13.578125 -17.453125 C 13.578125 -15.710938 13.671875 -13.992188 13.859375 -12.296875 C 14.367188 -8.054688 16.796875 -5.9375 21.140625 -5.9375 C 23.679688 -5.9375 25.691406 -6.992188 27.171875 -9.109375 C 28.660156 -11.234375 29.40625 -14.347656 29.40625 -18.453125 L 29.40625 -37.609375 Z M 39.15625 -37.609375 "/></g></g></g><g fill="#ffffff" fill-opacity="1"><g transform="translate(83.639337, 68.487489)"><g><path d="M 23.609375 -38.53125 C 24.691406 -38.53125 25.609375 -38.429688 26.359375 -38.234375 L 26.359375 -30.390625 C 22.210938 -30.671875 19.148438 -29.785156 17.171875 -27.734375 C 15.191406 -25.691406 14.203125 -22.195312 14.203125 -17.25 L 14.203125 0 L 4.453125 0 L 4.453125 -37.609375 L 14.203125 -37.609375 L 14.203125 -30.75 L 17.171875 -35.984375 C 19.015625 -37.679688 21.160156 -38.53125 23.609375 -38.53125 Z M 23.609375 -38.53125 "/></g></g></g><g fill="#ffffff" fill-opacity="1"><g transform="translate(106.398625, 68.487489)"><g><path d="M 38.59375 -19.578125 C 38.59375 -18.210938 38.546875 -17.109375 38.453125 -16.265625 L 11.734375 -16.265625 C 12.296875 -9.328125 15.191406 -5.859375 20.421875 -5.859375 C 22.546875 -5.859375 24.300781 -6.425781 25.6875 -7.5625 C 27.082031 -8.695312 27.945312 -10.253906 28.28125 -12.234375 L 38.03125 -12.234375 C 37.082031 -7.941406 35.019531 -4.664062 31.84375 -2.40625 C 28.664062 -0.144531 24.789062 0.984375 20.21875 0.984375 C 14.800781 0.984375 10.394531 -0.695312 7 -4.0625 C 3.601562 -7.4375 1.90625 -12.300781 1.90625 -18.65625 C 1.90625 -24.5 3.660156 -29.28125 7.171875 -33 C 10.679688 -36.726562 15.289062 -38.59375 21 -38.59375 C 26.507812 -38.59375 30.816406 -36.773438 33.921875 -33.140625 C 37.035156 -29.515625 38.59375 -24.992188 38.59375 -19.578125 Z M 20.5625 -31.734375 C 15.71875 -31.734375 12.867188 -28.695312 12.015625 -22.625 L 28.5625 -22.625 C 27.894531 -28.695312 25.226562 -31.734375 20.5625 -31.734375 Z M 20.5625 -31.734375 "/></g></g></g><g fill="#ffffff" fill-opacity="1"><g transform="translate(143.152738, 68.487489)"><g><path d="M 13.921875 -51.953125 L 13.921875 -12.296875 C 13.921875 -10.648438 13.945312 -9.5 14 -8.84375 C 14.09375 -7.84375 14.441406 -7.175781 15.046875 -6.84375 C 15.660156 -6.519531 16.769531 -6.40625 18.375 -6.5 L 18.375 0.21875 C 16.675781 0.40625 14.675781 0.5 12.375 0.5 C 7.1875 0.5 4.5 -1.71875 4.3125 -6.15625 C 4.21875 -7.28125 4.171875 -9.257812 4.171875 -12.09375 L 4.171875 -51.953125 Z M 13.921875 -51.953125 "/></g></g></g><g fill="#ffffff" fill-opacity="1"><g transform="translate(158.773251, 68.487489)"><g><path d="M 5.4375 -50.15625 C 6.425781 -51.125 7.722656 -51.609375 9.328125 -51.609375 C 10.929688 -51.609375 12.226562 -51.125 13.21875 -50.15625 C 14.207031 -49.1875 14.703125 -47.945312 14.703125 -46.4375 C 14.703125 -44.882812 14.207031 -43.632812 13.21875 -42.6875 C 12.226562 -41.75 10.929688 -41.28125 9.328125 -41.28125 C 7.722656 -41.28125 6.425781 -41.75 5.4375 -42.6875 C 4.445312 -43.632812 3.953125 -44.882812 3.953125 -46.4375 C 3.953125 -47.945312 4.445312 -49.1875 5.4375 -50.15625 Z M 14.203125 0 L 4.453125 0 L 4.453125 -37.609375 L 14.203125 -37.609375 Z M 14.203125 0 "/></g></g></g><g fill="#ffffff" fill-opacity="1"><g transform="translate(173.474901, 68.487489)"><g><path d="M 26.296875 0 L 25.59375 -5.515625 L 23.75 -1.484375 C 21.300781 0.160156 18.191406 0.984375 14.421875 0.984375 C 10.984375 0.984375 8.109375 0.0195312 5.796875 -1.90625 C 3.484375 -3.84375 2.328125 -6.53125 2.328125 -9.96875 C 2.328125 -14.113281 4.082031 -17.304688 7.59375 -19.546875 C 11.101562 -21.785156 16.253906 -22.90625 23.046875 -22.90625 L 25.453125 -22.90625 L 25.453125 -23.6875 C 25.453125 -25.1875 25.40625 -26.363281 25.3125 -27.21875 C 24.976562 -30.226562 23.046875 -31.734375 19.515625 -31.734375 C 15.597656 -31.734375 13.5 -29.613281 13.21875 -25.375 L 3.75 -25.3125 C 3.882812 -29.457031 5.445312 -32.707031 8.4375 -35.0625 C 11.4375 -37.414062 15.242188 -38.59375 19.859375 -38.59375 C 29.242188 -38.59375 34.265625 -34.894531 34.921875 -27.5 C 35.054688 -25.707031 35.125 -23.773438 35.125 -21.703125 L 35.125 -9.546875 C 35.125 -6.671875 35.363281 -3.488281 35.84375 0 Z M 18.171875 -5.859375 C 20.242188 -5.859375 21.972656 -6.566406 23.359375 -7.984375 C 24.753906 -9.398438 25.453125 -11.359375 25.453125 -13.859375 L 25.453125 -16.890625 C 16.773438 -17.503906 12.4375 -15.457031 12.4375 -10.75 C 12.4375 -7.488281 14.347656 -5.859375 18.171875 -5.859375 Z M 18.171875 -5.859375 "/></g></g></g></g></g><g clip-path="url(#70fe0e3b53)"><path fill="#89c400" d="M 65.613281 154.421875 C 65.613281 154.421875 65.507812 154.421875 65.402344 154.316406 C 64.644531 153.769531 63.765625 153.453125 62.902344 153.121094 C 61.058594 152.363281 59.105469 152.136719 57.363281 152.257812 C 57.257812 154 57.46875 155.84375 58.226562 157.691406 C 58.984375 159.75 60.179688 161.71875 61.921875 163.445312 C 62.570312 164.097656 63.222656 164.640625 63.875 165.1875 C 64.628906 165.730469 65.386719 166.171875 66.054688 166.488281 C 66.492188 166.699219 66.703125 167.246094 66.492188 167.683594 C 66.28125 168.125 65.734375 168.230469 65.296875 168.019531 C 64.539062 167.578125 63.660156 167.15625 62.902344 166.503906 C 62.148438 165.957031 61.390625 165.414062 60.722656 164.65625 C 58.769531 162.808594 57.46875 160.628906 56.589844 158.359375 C 55.726562 155.964844 55.394531 153.574219 55.726562 151.410156 C 55.835938 150.96875 56.167969 150.757812 56.484375 150.652344 C 58.664062 150.320312 61.164062 150.652344 63.433594 151.515625 C 63.980469 151.726562 64.628906 151.953125 65.175781 152.273438 C 65.386719 150.09375 65.828125 148.140625 66.6875 146.292969 C 67.671875 144.007812 69.1875 142.160156 71.035156 140.75 C 71.367188 140.539062 71.792969 140.539062 72.019531 140.855469 C 73.867188 142.160156 75.378906 144.007812 76.363281 146.292969 C 77.226562 148.140625 77.664062 150.09375 77.878906 152.273438 C 78.421875 151.941406 78.96875 151.726562 79.617188 151.515625 C 81.90625 150.652344 84.402344 150.320312 86.566406 150.652344 C 87.007812 150.757812 87.21875 151.089844 87.324219 151.410156 C 87.65625 153.589844 87.324219 155.964844 86.460938 158.359375 C 85.597656 160.644531 84.175781 162.808594 82.328125 164.65625 C 81.675781 165.414062 80.921875 165.957031 80.148438 166.503906 C 79.390625 167.15625 78.511719 167.59375 77.757812 168.019531 C 77.316406 168.230469 76.773438 168.125 76.558594 167.683594 C 76.347656 167.246094 76.558594 166.699219 77 166.488281 C 77.648438 166.15625 78.40625 165.730469 79.179688 165.1875 C 79.832031 164.640625 80.480469 164.097656 81.132812 163.445312 C 82.875 161.703125 84.070312 159.75 84.828125 157.691406 C 85.582031 155.84375 85.8125 154 85.6875 152.257812 C 83.84375 152.152344 81.996094 152.363281 80.148438 153.121094 C 79.285156 153.453125 78.40625 153.769531 77.648438 154.316406 C 77.542969 154.421875 77.4375 154.421875 77.316406 154.421875 C 76.332031 155.074219 75.363281 155.9375 74.484375 156.8125 C 73.730469 157.464844 73.183594 158.117188 72.640625 158.765625 C 74.925781 161.917969 75.683594 164.414062 75.46875 166.15625 C 75.136719 168.441406 73.289062 169.636719 71.441406 169.636719 C 69.703125 169.636719 67.855469 168.441406 67.535156 166.15625 C 67.324219 164.414062 67.976562 161.917969 70.367188 158.765625 C 69.824219 158.117188 69.277344 157.464844 68.519531 156.8125 C 67.671875 155.953125 66.703125 155.074219 65.613281 154.421875 Z M 71.488281 171.378906 C 73.441406 171.378906 75.183594 172.242188 76.484375 173.4375 C 77.785156 174.738281 78.542969 176.480469 78.542969 178.433594 C 78.542969 180.386719 77.785156 182.128906 76.484375 183.429688 C 75.183594 184.625 73.441406 185.488281 71.488281 185.488281 C 69.640625 185.488281 67.792969 184.625 66.597656 183.429688 C 65.296875 182.128906 64.539062 180.386719 64.539062 178.433594 C 64.539062 176.480469 65.296875 174.738281 66.597656 173.4375 C 67.792969 172.242188 69.640625 171.378906 71.488281 171.378906 Z M 75.289062 174.632812 C 74.304688 173.769531 73.003906 173.121094 71.488281 173.121094 C 70.082031 173.121094 68.777344 173.769531 67.792969 174.632812 C 66.808594 175.617188 66.28125 177.027344 66.28125 178.433594 C 66.28125 179.84375 66.824219 181.265625 67.792969 182.234375 C 68.777344 183.097656 70.082031 183.746094 71.488281 183.746094 C 73.003906 183.746094 74.320312 183.097656 75.289062 182.234375 C 76.273438 181.25 76.800781 179.84375 76.800781 178.433594 C 76.800781 177.027344 76.257812 175.601562 75.289062 174.632812 Z M 61.164062 172.242188 C 61.375 172.679688 61.164062 173.105469 60.722656 173.332031 C 60.285156 173.542969 59.859375 173.4375 59.632812 173 C 59.195312 172.242188 58.769531 171.484375 58.226562 170.820312 C 57.785156 170.167969 57.136719 169.515625 56.589844 168.867188 C 54.851562 167.125 52.789062 165.824219 50.839844 165.066406 C 48.992188 164.414062 47.144531 164.082031 45.296875 164.308594 C 45.191406 166.050781 45.507812 167.898438 46.160156 169.742188 C 46.492188 170.605469 46.917969 171.484375 47.355469 172.347656 C 47.460938 172.347656 47.566406 172.453125 47.566406 172.558594 C 48.21875 173.542969 48.976562 174.511719 49.855469 175.496094 C 50.609375 176.148438 51.261719 176.796875 51.914062 177.34375 C 54.957031 174.953125 57.453125 174.300781 59.195312 174.511719 C 61.585938 174.726562 62.78125 176.570312 62.78125 178.417969 C 62.78125 180.265625 61.585938 182.113281 59.195312 182.324219 C 57.453125 182.535156 54.957031 181.886719 51.914062 179.492188 C 51.261719 180.039062 50.609375 180.691406 49.855469 181.339844 C 48.992188 182.324219 48.21875 183.292969 47.566406 184.277344 C 47.566406 184.382812 47.460938 184.488281 47.355469 184.488281 C 46.917969 185.351562 46.492188 186.230469 46.160156 187.09375 C 45.507812 188.941406 45.175781 190.789062 45.296875 192.527344 C 47.144531 192.742188 48.992188 192.421875 50.839844 191.773438 C 52.789062 191.015625 54.863281 189.710938 56.589844 187.972656 C 57.136719 187.320312 57.785156 186.667969 58.226562 186.019531 C 58.769531 185.367188 59.210938 184.609375 59.632812 183.839844 C 59.847656 183.398438 60.285156 183.292969 60.722656 183.503906 C 61.164062 183.71875 61.375 184.15625 61.164062 184.59375 C 60.722656 185.457031 60.179688 186.230469 59.648438 186.988281 C 59.105469 187.746094 58.453125 188.5 57.800781 189.167969 C 55.847656 191.121094 53.667969 192.527344 51.398438 193.300781 C 49.113281 194.285156 46.71875 194.496094 44.449219 194.164062 C 44.117188 194.164062 43.796875 193.832031 43.796875 193.40625 C 43.359375 191.226562 43.691406 188.851562 44.554688 186.457031 C 44.765625 185.914062 45.101562 185.367188 45.3125 184.714844 C 43.132812 184.609375 41.179688 184.066406 39.453125 183.308594 C 37.167969 182.21875 35.214844 180.703125 33.910156 178.964844 C 33.699219 178.628906 33.699219 178.207031 33.910156 177.875 C 35.214844 176.132812 37.167969 174.617188 39.453125 173.527344 C 41.195312 172.773438 43.148438 172.226562 45.3125 172.121094 C 45.101562 171.46875 44.765625 170.925781 44.554688 170.378906 C 43.691406 167.988281 43.359375 165.59375 43.796875 163.429688 C 43.796875 162.992188 44.132812 162.671875 44.449219 162.671875 C 46.734375 162.339844 49.128906 162.566406 51.398438 163.535156 C 53.683594 164.292969 55.847656 165.714844 57.800781 167.667969 C 58.453125 168.320312 59.105469 169.078125 59.648438 169.851562 C 60.179688 170.605469 60.722656 171.378906 61.164062 172.242188 Z M 46.28125 183.113281 C 46.933594 182.128906 47.792969 181.054688 48.671875 180.175781 C 49.324219 179.523438 49.976562 178.980469 50.519531 178.433594 C 49.976562 177.890625 49.324219 177.34375 48.671875 176.691406 C 47.808594 175.828125 46.933594 174.738281 46.28125 173.753906 C 43.996094 173.863281 41.9375 174.300781 40.089844 175.164062 C 38.347656 175.921875 36.832031 177.117188 35.636719 178.417969 C 36.832031 179.722656 38.347656 180.917969 40.089844 181.671875 C 41.9375 182.566406 43.996094 182.992188 46.28125 183.113281 Z M 53.230469 178.433594 C 55.726562 180.28125 57.679688 180.824219 58.984375 180.71875 C 60.390625 180.507812 61.042969 179.417969 61.042969 178.433594 C 61.042969 177.34375 60.390625 176.375 58.984375 176.148438 C 57.679688 176.042969 55.726562 176.585938 53.230469 178.433594 Z M 83.433594 173 C 83.222656 173.4375 82.78125 173.542969 82.34375 173.332031 C 81.90625 173.121094 81.691406 172.679688 81.90625 172.242188 C 82.34375 171.378906 82.886719 170.605469 83.417969 169.851562 C 83.964844 169.09375 84.613281 168.335938 85.265625 167.667969 C 87.21875 165.714844 89.398438 164.308594 91.667969 163.535156 C 93.957031 162.550781 96.347656 162.339844 98.617188 162.671875 C 98.953125 162.671875 99.269531 163.007812 99.269531 163.429688 C 99.601562 165.609375 99.375 167.988281 98.511719 170.378906 C 98.300781 170.925781 97.96875 171.46875 97.753906 172.121094 C 99.816406 172.226562 101.890625 172.773438 103.613281 173.527344 C 105.902344 174.617188 107.855469 176.132812 109.15625 177.875 C 109.367188 178.207031 109.367188 178.628906 109.15625 178.964844 C 107.855469 180.703125 105.902344 182.21875 103.613281 183.308594 C 101.875 184.066406 99.816406 184.609375 97.753906 184.714844 C 97.96875 185.367188 98.300781 185.914062 98.511719 186.457031 C 99.375 188.851562 99.601562 191.242188 99.269531 193.40625 C 99.269531 193.847656 98.9375 194.164062 98.617188 194.164062 C 96.332031 194.496094 93.941406 194.269531 91.667969 193.300781 C 89.382812 192.542969 87.21875 191.121094 85.265625 189.167969 C 84.613281 188.515625 83.964844 187.761719 83.417969 186.988281 C 82.875 186.230469 82.328125 185.472656 81.90625 184.59375 C 81.691406 184.15625 81.90625 183.734375 82.34375 183.503906 C 82.78125 183.292969 83.207031 183.398438 83.433594 183.839844 C 83.871094 184.59375 84.296875 185.351562 84.839844 186.019531 C 85.28125 186.667969 85.824219 187.320312 86.476562 187.972656 C 88.21875 189.710938 90.171875 191.015625 92.230469 191.773438 C 94.078125 192.421875 95.925781 192.757812 97.664062 192.527344 C 97.875 190.789062 97.558594 188.941406 96.90625 187.09375 C 96.574219 186.230469 96.152344 185.351562 95.605469 184.488281 C 95.605469 184.488281 95.5 184.382812 95.5 184.277344 C 94.847656 183.292969 94.09375 182.324219 93.109375 181.339844 C 92.457031 180.691406 91.804688 180.039062 91.15625 179.492188 C 88.113281 181.886719 85.613281 182.535156 83.871094 182.324219 C 81.480469 182.113281 80.285156 180.265625 80.285156 178.417969 C 80.285156 176.570312 81.480469 174.726562 83.871094 174.511719 C 85.613281 174.300781 88.003906 174.953125 91.15625 177.34375 C 91.804688 176.796875 92.457031 176.148438 93.109375 175.496094 C 94.09375 174.511719 94.847656 173.542969 95.5 172.558594 C 95.5 172.453125 95.605469 172.347656 95.605469 172.347656 C 96.152344 171.484375 96.589844 170.605469 96.90625 169.742188 C 97.558594 167.898438 97.890625 166.050781 97.664062 164.308594 C 95.925781 164.097656 94.078125 164.414062 92.230469 165.066406 C 90.171875 165.824219 88.203125 167.125 86.476562 168.867188 C 85.824219 169.515625 85.28125 170.167969 84.839844 170.820312 C 84.296875 171.484375 83.871094 172.242188 83.433594 173 Z M 96.800781 173.753906 C 96.152344 174.738281 95.289062 175.816406 94.410156 176.691406 C 93.757812 177.34375 93.109375 177.890625 92.5625 178.433594 C 93.109375 178.980469 93.757812 179.523438 94.410156 180.175781 C 95.273438 181.039062 96.152344 182.128906 96.800781 183.113281 C 99.089844 183.007812 101.148438 182.566406 102.992188 181.703125 C 104.734375 180.945312 106.25 179.75 107.445312 178.449219 C 106.25 177.148438 104.734375 175.949219 102.992188 175.195312 C 101.148438 174.300781 99.074219 173.875 96.800781 173.753906 Z M 84.085938 180.71875 C 85.386719 180.824219 87.234375 180.28125 89.730469 178.433594 C 87.234375 176.585938 85.386719 176.042969 84.085938 176.148438 C 82.675781 176.359375 82.027344 177.34375 82.027344 178.433594 C 82.027344 179.417969 82.675781 180.492188 84.085938 180.71875 Z M 65.296875 188.863281 C 65.734375 188.652344 66.28125 188.757812 66.492188 189.199219 C 66.703125 189.636719 66.492188 190.183594 66.054688 190.394531 C 65.402344 190.726562 64.644531 191.152344 63.875 191.695312 C 63.222656 192.242188 62.570312 192.785156 61.921875 193.4375 C 60.179688 195.179688 58.984375 197.132812 58.226562 199.191406 C 57.46875 201.039062 57.242188 202.882812 57.363281 204.625 C 59.105469 204.730469 61.058594 204.519531 62.902344 203.761719 C 63.765625 203.429688 64.644531 203.113281 65.402344 202.566406 C 65.507812 202.460938 65.613281 202.460938 65.613281 202.460938 C 66.703125 201.808594 67.671875 200.945312 68.550781 200.070312 C 69.308594 199.417969 69.851562 198.765625 70.398438 198.117188 C 68.007812 194.964844 67.355469 192.46875 67.566406 190.726562 C 67.898438 188.441406 69.746094 187.246094 71.472656 187.246094 C 73.320312 187.246094 75.167969 188.441406 75.5 190.726562 C 75.710938 192.574219 74.957031 194.964844 72.667969 198.117188 C 73.214844 198.765625 73.757812 199.417969 74.515625 200.070312 C 75.378906 200.929688 76.363281 201.808594 77.347656 202.460938 C 77.453125 202.460938 77.558594 202.460938 77.679688 202.566406 C 78.4375 203.113281 79.316406 203.429688 80.179688 203.761719 C 82.027344 204.519531 83.871094 204.746094 85.71875 204.625 C 85.824219 202.882812 85.613281 201.039062 84.855469 199.191406 C 84.101562 197.132812 82.902344 195.164062 81.164062 193.4375 C 80.511719 192.785156 79.859375 192.242188 79.210938 191.695312 C 78.453125 191.152344 77.695312 190.710938 77.03125 190.394531 C 76.589844 190.183594 76.378906 189.636719 76.589844 189.199219 C 76.800781 188.757812 77.347656 188.652344 77.785156 188.863281 C 78.542969 189.304688 79.421875 189.726562 80.179688 190.378906 C 80.9375 190.925781 81.691406 191.46875 82.359375 192.226562 C 84.207031 194.074219 85.613281 196.253906 86.492188 198.523438 C 87.355469 200.917969 87.6875 203.308594 87.355469 205.472656 C 87.25 205.914062 87.023438 206.125 86.597656 206.230469 C 84.417969 206.5625 81.917969 206.230469 79.648438 205.367188 C 78.996094 205.15625 78.453125 204.929688 77.90625 204.609375 C 77.695312 206.789062 77.257812 208.847656 76.394531 210.589844 C 75.410156 212.875 73.894531 214.722656 72.046875 216.027344 C 71.835938 216.359375 71.398438 216.359375 71.066406 216.132812 C 69.21875 214.722656 67.703125 212.875 66.71875 210.589844 C 65.855469 208.847656 65.417969 206.789062 65.207031 204.609375 C 64.660156 204.945312 64.007812 205.15625 63.464844 205.367188 C 61.179688 206.230469 58.679688 206.5625 56.515625 206.230469 C 56.183594 206.125 55.863281 205.898438 55.757812 205.472656 C 55.425781 203.292969 55.757812 200.917969 56.621094 198.523438 C 57.484375 196.238281 58.800781 194.074219 60.753906 192.226562 C 61.40625 191.46875 62.164062 190.925781 62.933594 190.378906 C 63.660156 189.726562 64.523438 189.304688 65.296875 188.863281 Z M 76.152344 203.640625 C 75.167969 202.992188 74.199219 202.234375 73.214844 201.25 C 72.5625 200.597656 72.019531 200.054688 71.472656 199.402344 C 71.035156 200.054688 70.382812 200.597656 69.730469 201.25 C 68.871094 202.234375 67.886719 202.992188 66.796875 203.640625 C 66.902344 205.925781 67.445312 208.09375 68.203125 209.832031 C 69.066406 211.679688 70.15625 213.195312 71.457031 214.285156 C 72.867188 213.195312 73.957031 211.679688 74.820312 209.832031 C 75.605469 208.09375 76.152344 205.914062 76.152344 203.640625 Z M 71.488281 196.691406 C 73.335938 194.195312 73.988281 192.347656 73.773438 190.9375 C 73.5625 189.636719 72.578125 188.878906 71.488281 188.878906 C 70.503906 188.878906 69.429688 189.636719 69.308594 190.9375 C 69.097656 192.226562 69.640625 194.179688 71.488281 196.691406 Z M 76.152344 153.226562 C 76.152344 150.941406 75.605469 148.773438 74.847656 147.035156 C 73.988281 145.1875 72.894531 143.671875 71.488281 142.582031 C 70.1875 143.671875 69.097656 145.1875 68.234375 147.035156 C 67.476562 148.773438 66.929688 150.941406 66.824219 153.226562 C 67.914062 153.878906 68.882812 154.632812 69.761719 155.617188 C 70.414062 156.269531 71.066406 156.8125 71.503906 157.464844 C 72.046875 156.8125 72.59375 156.269531 73.246094 155.617188 C 74.199219 154.648438 75.183594 153.878906 76.152344 153.226562 Z M 73.757812 165.945312 C 73.972656 164.640625 73.320312 162.6875 71.472656 160.191406 C 69.625 162.6875 69.082031 164.640625 69.292969 165.945312 C 69.398438 167.246094 70.488281 168.003906 71.472656 168.003906 C 72.5625 168.003906 73.546875 167.246094 73.757812 165.945312 Z M 73.757812 165.945312 " fill-opacity="1" fill-rule="nonzero"/></g></svg>